<svg xmlns="http://www.w3.org/2000/svg" viewBox="13.564999999999998 39.61 547.8699951171875 466.1700006866455"> <svg xmlns="http://www.w3.org/2000/svg" viewBox="-0.00993489008396864 0 117.26992797851562 119.83135986328125" height="230" width="225.078125" y="109.61" x="174.96" preserveAspectRatio="xMinYMin" style="overflow: visible;"><path id="Layer_1-2" dataName="Layer 1" class="cls-1" d="M58.63,58.11c-.06-.14-.11-.28-.16-.41C58.52,57.83,58.57,58,58.63,58.11Z" style="fill: none;"></path><path id="Layer_1-2" dataName="Layer 1" class="cls-1" d="M59.58,60.19a1.11,1.11,0,0,0,.07.16h0Z" style="fill: none;"></path><path id="Layer_1-2" dataName="Layer 1" class="cls-1" d="M59,55.7h.28q4.91,0,7.43-2.8a10.67,10.67,0,0,0,2.53-7.43c0-3.28-.78-5.85-2.32-7.71S63.05,35,59.86,35H59a10.36,10.36,0,0,0-2.63.35,10.17,10.17,0,0,0-2.17.84l-.21.11c-.26.15-.52.3-.76.46l-.1.07c-.21.15-.42.3-.62.47l-.2.16c-.19.16-.36.32-.54.49l-.13.12c-.2.21-.4.43-.59.65l-.14.18c-.14.18-.28.36-.41.55s-.1.14-.14.21c-.17.25-.32.5-.47.76l0,.07c-.13.24-.25.49-.36.74a2.44,2.44,0,0,1-.1.24c-.09.22-.17.45-.25.68l-.06.19c-.09.29-.16.58-.23.88a1.55,1.55,0,0,1,0,.21c0,.24-.08.48-.11.73l0,.26c0,.32,0,.63,0,.95v0h0c0,.34,0,.67,0,1,0,.11,0,.21,0,.32s.06.45.11.67.06.26.09.38a5.47,5.47,0,0,0,.15.58c0,.13.08.26.13.39s.12.36.19.53.11.26.17.38l.24.5.2.37c.09.16.19.31.29.47l.23.34.33.44a4,4,0,0,0,.26.32c.12.14.24.28.37.41a3.83,3.83,0,0,0,.28.29l.43.39.28.25c.16.13.33.25.5.37l.27.2c.21.14.43.27.65.39l.18.1a8.79,8.79,0,0,0,.87.43l.22.08c.23.09.46.18.69.25l.35.1c.2,0,.4.11.61.15l.4.07.42.08.12.32-.11-.33A10,10,0,0,0,59,55.7Z" style="fill: none;"></path><path id="Layer_1-2" dataName="Layer 1" class="cls-2" d="M22.6,25.58c.19-.41.4-.81.62-1.21C23,24.77,22.79,25.17,22.6,25.58Z" style="fill: #24e6ed; fill-opacity: 1;"></path><path id="Layer_1-2" dataName="Layer 1" class="cls-2" d="M48.9,43.18c.07-.3.14-.59.23-.88C49,42.59,49,42.88,48.9,43.18Z" style="fill: #24e6ed; fill-opacity: 1;"></path><path id="Layer_1-2" dataName="Layer 1" class="cls-2" d="M23.42,24c.17-.29.35-.57.53-.86C23.77,23.45,23.59,23.73,23.42,24Z" style="fill: #24e6ed; fill-opacity: 1;"></path><path id="Layer_1-2" dataName="Layer 1" class="cls-2" d="M48.75,44.12c0-.25.07-.49.11-.73C48.82,43.63,48.78,43.87,48.75,44.12Z" style="fill: #24e6ed; fill-opacity: 1;"></path><path id="Layer_1-2" dataName="Layer 1" class="cls-2" d="M48.68,45.33c0-.32,0-.63,0-.95C48.7,44.7,48.68,45,48.68,45.33Z" style="fill: #24e6ed; fill-opacity: 1;"></path><path id="Layer_1-2" dataName="Layer 1" class="cls-2" d="M22,26.84c.17-.43.35-.85.55-1.26C22.39,26,22.21,26.41,22,26.84Z" style="fill: #24e6ed; fill-opacity: 1;"></path><path id="Layer_1-2" dataName="Layer 1" class="cls-2" d="M24.16,22.82c.24-.35.48-.7.73-1C24.64,22.12,24.4,22.47,24.16,22.82Z" style="fill: #24e6ed; fill-opacity: 1;"></path><path id="Layer_1-2" dataName="Layer 1" class="cls-2" d="M20.7,31.27c.09-.46.19-.92.31-1.36C20.89,30.35,20.79,30.81,20.7,31.27Z" style="fill: #24e6ed; fill-opacity: 1;"></path><path id="Layer_1-2" dataName="Layer 1" class="cls-2" d="M20.47,32.69c.05-.34.1-.69.16-1C20.57,32,20.52,32.35,20.47,32.69Z" style="fill: #24e6ed; fill-opacity: 1;"></path><path id="Layer_1-2" dataName="Layer 1" class="cls-2" d="M21.54,28.17c.11-.32.22-.64.35-1C21.76,27.53,21.65,27.85,21.54,28.17Z" style="fill: #24e6ed; fill-opacity: 1;"></path><path id="Layer_1-2" dataName="Layer 1" class="cls-2" d="M21.05,29.76c.11-.4.22-.8.35-1.19C21.27,29,21.16,29.36,21.05,29.76Z" style="fill: #24e6ed; fill-opacity: 1;"></path><path id="Layer_1-2" dataName="Layer 1" class="cls-2" d="M52.55,37.26c.2-.17.41-.32.62-.47C53,36.94,52.75,37.09,52.55,37.26Z" style="fill: #24e6ed; fill-opacity: 1;"></path><path id="Layer_1-2" dataName="Layer 1" class="cls-2" d="M53.27,36.72c.24-.16.5-.31.76-.46C53.77,36.41,53.51,36.56,53.27,36.72Z" style="fill: #24e6ed; fill-opacity: 1;"></path><path id="Layer_1-2" dataName="Layer 1" class="cls-2" d="M51.81,37.91c.18-.17.35-.33.54-.49C52.16,37.58,52,37.74,51.81,37.91Z" style="fill: #24e6ed; fill-opacity: 1;"></path><path id="Layer_1-2" dataName="Layer 1" class="cls-2" d="M48.68,45.33v0h0Z" style="fill: #24e6ed; fill-opacity: 1;"></path><path id="Layer_1-2" dataName="Layer 1" class="cls-2" d="M49.19,42.11c.08-.23.16-.46.25-.68C49.35,41.65,49.27,41.88,49.19,42.11Z" style="fill: #24e6ed; fill-opacity: 1;"></path><path id="Layer_1-2" dataName="Layer 1" class="cls-2" d="M54.24,36.15a10.17,10.17,0,0,1,2.17-.84A38.83,38.83,0,0,1,70.65,12.43a47.68,47.68,0,0,0-4.88-.25H43.93a23.62,23.62,0,0,0-19,9.54A49.13,49.13,0,0,1,54.54,36Z" style="fill: #24e6ed; fill-opacity: 1;"></path><path id="Layer_1-2" dataName="Layer 1" class="cls-2" d="M49.54,41.19c.11-.25.23-.5.36-.74C49.77,40.69,49.65,40.94,49.54,41.19Z" style="fill: #24e6ed; fill-opacity: 1;"></path><path id="Layer_1-2" dataName="Layer 1" class="cls-2" d="M49.93,40.38c.15-.26.3-.51.47-.76C50.23,39.87,50.08,40.12,49.93,40.38Z" style="fill: #24e6ed; fill-opacity: 1;"></path><path id="Layer_1-2" dataName="Layer 1" class="cls-2" d="M50.54,39.41c.13-.19.27-.37.41-.55C50.81,39,50.67,39.22,50.54,39.41Z" style="fill: #24e6ed; fill-opacity: 1;"></path><path id="Layer_1-2" dataName="Layer 1" class="cls-2" d="M51.09,38.68c.19-.22.39-.44.59-.65C51.48,38.24,51.28,38.46,51.09,38.68Z" style="fill: #24e6ed; fill-opacity: 1;"></path><path id="Layer_1-2" dataName="Layer 1" class="cls-3" d="M59.65,60.35a1.11,1.11,0,0,1-.07-.16c-.34-.69-.65-1.38-.95-2.08-.06-.14-.11-.28-.16-.41-.24-.59-.46-1.17-.67-1.77l-.12-.32-.42-.08-.4-.07c-.21,0-.41-.1-.61-.15l-.35-.1c-.23-.07-.46-.16-.69-.25L55,54.88a8.79,8.79,0,0,1-.87-.43l-.18-.1c-.22-.12-.44-.25-.65-.39l-.27-.2c-.17-.12-.34-.24-.5-.37l-.28-.25-.43-.39a3.83,3.83,0,0,1-.28-.29c-.13-.13-.25-.27-.37-.41a4,4,0,0,1-.26-.32l-.33-.44L50.34,51c-.1-.16-.2-.31-.29-.47l-.2-.37-.24-.5c-.06-.12-.12-.25-.17-.38s-.13-.35-.19-.53-.09-.26-.13-.39a5.47,5.47,0,0,1-.15-.58c0-.12-.07-.25-.09-.38s-.08-.44-.11-.67,0-.21,0-.32c0-.33,0-.66,0-1A47.79,47.79,0,0,1,20.44,33l0,.21c0,.3-.06.6-.08.9,0,.15,0,.29,0,.44,0,.44-.05.9-.05,1.35v60A14.22,14.22,0,0,0,34.47,110a12.75,12.75,0,0,0,1.38-.07l.45-.06.72-.11A35.75,35.75,0,0,1,59.65,60.35Z" style="fill: #0bdbe9; fill-opacity: 1;"></path><path id="Layer_1-2" dataName="Layer 1" class="cls-4" d="M48.68,45.36h0v0c0-.32,0-.63,0-.95l0-.26c0-.25.07-.49.11-.73a1.55,1.55,0,0,0,0-.21c.07-.3.14-.59.23-.88l.06-.19c.08-.23.16-.46.25-.68a2.44,2.44,0,0,0,.1-.24c.11-.25.23-.5.36-.74l0-.07c.15-.26.3-.51.47-.76,0-.07.09-.14.14-.21s.27-.37.41-.55l.14-.18c.19-.22.39-.44.59-.65l.13-.12c.18-.17.35-.33.54-.49l.2-.16c.2-.17.41-.32.62-.47l.1-.07c.24-.16.5-.31.76-.46l.21-.11.3-.16a49.13,49.13,0,0,0-29.6-14.27l-.05.06c-.25.34-.49.69-.73,1l-.21.34c-.18.29-.36.57-.53.86a4,4,0,0,1-.2.35c-.22.4-.43.8-.62,1.21h0c-.2.41-.38.83-.55,1.26-.06.12-.1.25-.15.37-.13.32-.24.64-.35,1-.05.13-.09.26-.14.4-.13.39-.24.79-.35,1.19,0,0,0,.1,0,.15-.12.44-.22.9-.31,1.36,0,.13,0,.26-.07.39-.06.34-.11.69-.16,1l0,.26A47.79,47.79,0,0,0,48.68,45.36Z" style="fill: #0bf1b3; fill-opacity: 1;"></path><path id="Layer_1-2" dataName="Layer 1" class="cls-5" d="M77.12,76.68l-.81.26Z" style="fill: #2a6cfa;"></path><path id="Layer_1-2" dataName="Layer 1" class="cls-5" d="M87.13,71c-.53.45-1.07.88-1.63,1.3C86.06,71.91,86.6,71.48,87.13,71Z" style="fill: #2a6cfa;"></path><path id="Layer_1-2" dataName="Layer 1" class="cls-5" d="M84.91,72.75c-.72.5-1.45,1-2.22,1.44C83.46,73.74,84.19,73.25,84.91,72.75Z" style="fill: #2a6cfa;"></path><path id="Layer_1-2" dataName="Layer 1" class="cls-5" d="M80.91,75.14l-.6.27Z" style="fill: #2a6cfa;"></path><path id="Layer_1-2" dataName="Layer 1" class="cls-5" d="M79.06,76l-.74.28Z" style="fill: #2a6cfa;"></path><path id="Layer_1-2" dataName="Layer 1" class="cls-5" d="M91.14,66.9c-.43.54-.88,1.07-1.34,1.57C90.26,68,90.71,67.44,91.14,66.9Z" style="fill: #2a6cfa;"></path><path id="Layer_1-2" dataName="Layer 1" class="cls-5" d="M89.41,68.9c-.59.61-1.2,1.2-1.84,1.77C88.21,70.1,88.82,69.51,89.41,68.9Z" style="fill: #2a6cfa;"></path><path id="Layer_1-2" dataName="Layer 1" class="cls-5" d="M56.41,35.31A10.36,10.36,0,0,1,59,35h.82c3.19,0,5.55.94,7.1,2.8s2.32,4.43,2.32,7.71a10.67,10.67,0,0,1-2.53,7.43q-2.52,2.81-7.43,2.8H59a10,10,0,0,1-1.35-.1l.11.33c.21.6.43,1.18.67,1.77.05.13.1.27.16.41.3.7.61,1.39.95,2.08l.08.16A35.74,35.74,0,0,1,91.4,66.58a32,32,0,0,0,2.75-4.2,34.71,34.71,0,0,0,4.09-16.91A39,39,0,0,0,94.7,28.76,28.12,28.12,0,0,0,84,16.68a30.58,30.58,0,0,0-13.34-4.25A38.83,38.83,0,0,0,56.41,35.31Z" style="fill: #2a6cfa;"></path><path id="Layer_1-2" dataName="Layer 1" class="cls-6" d="M68.85,72.31a48.56,48.56,0,0,1-.56,6.06l1.5-.13.37,0c.72-.09,1.42-.19,2.12-.31l.59-.12c.49-.09,1-.19,1.47-.31.24,0,.47-.12.71-.18l.63-.17A39.43,39.43,0,0,1,68.85,72.31Z" style="fill: #24e6ed;"></path><path id="Layer_1-2" dataName="Layer 1" class="cls-7" d="M68.29,78.37a48.56,48.56,0,0,0,.56-6.06,39.07,39.07,0,0,1-9.2-12A35.75,35.75,0,0,0,37,109.8l.17,0,.51-.11c.27-.06.53-.13.79-.21l.52-.16.73-.27.51-.22c.23-.1.47-.21.7-.33l.47-.25c.23-.13.46-.27.68-.42l.43-.27c.24-.17.47-.34.69-.52l.34-.26c.32-.27.64-.56.94-.85l0,0q.45-.47.87-1l.25-.33c.18-.23.36-.46.53-.7l.27-.42c.14-.23.28-.46.41-.69s.17-.31.25-.47.24-.46.34-.7.15-.34.21-.5.19-.49.27-.74.12-.34.17-.52.14-.52.2-.79.09-.34.12-.51.1-.6.14-.9l.06-.44c0-.45.07-.91.07-1.38v-13A4.36,4.36,0,0,1,53,78.48H65.23c1,0,1.88,0,2.8-.09Z" style="fill: #0bf1b3; fill-opacity: 1;"></path><path id="Layer_1-2" dataName="Layer 1" class="cls-8" d="M59.66,60.35h0a39.06,39.06,0,0,0,16,16.77l.63-.18.81-.26c.4-.13.8-.28,1.2-.43l.74-.28,1.25-.56.6-.27c.61-.3,1.2-.62,1.78-1,.77-.45,1.5-.94,2.22-1.44l.59-.42c.56-.42,1.1-.85,1.63-1.3l.44-.36c.64-.57,1.25-1.16,1.84-1.77l.39-.43c.46-.5.91-1,1.34-1.57l.26-.32a35.74,35.74,0,0,0-31.74-6.23Z" style="fill: #0ac6ff;"></path><circle id="Layer_1-2" dataName="Layer 1" class="cls-5" cx="110.11" cy="52.75" r="7.15" style="fill: #2a6cfa;"></circle><path id="Layer_1-2" dataName="Layer 1" class="cls-5" d="M108.05,65.23a4.5,4.5,0,1,0-.58,6.34A4.51,4.51,0,0,0,108.05,65.23Z" style="fill: #2a6cfa;"></path><path id="Layer_1-2" dataName="Layer 1" class="cls-6" d="M48.5,110.84a4.5,4.5,0,1,0,4.77,4.21A4.5,4.5,0,0,0,48.5,110.84Z" style="fill: #24e6ed;"></path><circle id="Layer_1-2" dataName="Layer 1" class="cls-6" cx="62.58" cy="93.89" r="7.91" style="fill: #24e6ed;"></circle><circle id="Layer_1-2" dataName="Layer 1" class="cls-9" cx="60.6" cy="111.11" r="3.18" style="fill: #0bf1b3; fill-opacity: 1;"></circle><circle id="Layer_1-2" dataName="Layer 1" class="cls-2" cx="26.2" cy="6.33" r="3.18" style="fill: #24e6ed; fill-opacity: 1;"></circle><circle id="Layer_1-2" dataName="Layer 1" class="cls-2" cx="11.58" cy="8.01" r="8.01" style="fill: #24e6ed; fill-opacity: 1;"></circle><path id="Layer_1-2" dataName="Layer 1" class="cls-3" d="M14.31,66.87A7.16,7.16,0,1,0,7.15,74,7.16,7.16,0,0,0,14.31,66.87Z" style="fill: #0bdbe9; fill-opacity: 1;"></path><path id="Layer_1-2" dataName="Layer 1" class="cls-3" d="M14.22,48.87a5.06,5.06,0,1,0-5.06,5.06A5.07,5.07,0,0,0,14.22,48.87Z" style="fill: #0bdbe9; fill-opacity: 1;"></path></svg> <svg y="425" viewBox="1.340000033378601 3.819999933242798 328.07000732421875 10.780000686645508" x="123.465" height="10.780000686645508" width="328.07000732421875" style="overflow: visible;"><g fill="#FFFFFF" fill-opacity="1" style=""><path d="M3.38 12.53L6.57 12.53Q7.05 12.53 7.24 12.44L7.24 12.44L7.27 12.45L7.20 14.41L1.34 14.41L1.34 3.96Q1.55 3.98 1.81 3.98L1.81 3.98L2.36 4Q2.91 4.02 3.55 4.02L3.55 4.02Q5.34 4.02 7.09 3.95L7.09 3.95Q7 4.64 7 5.79L7 5.79Q7 5.91 7.02 5.98L7.02 5.98L7 6Q6.59 5.88 5.84 5.88L5.84 5.88L3.38 5.88L3.38 7.88L5.23 7.88Q6.09 7.88 6.27 7.83L6.27 7.83L6.29 9.76Q5.91 9.72 5.32 9.72L5.32 9.72L3.38 9.72L3.38 12.53ZM16.47 14.41L14.43 14.41Q14.48 14.14 14.48 13.83L14.48 13.83L14.48 4.02L16.04 4.02L20.18 10.53L20.18 4.55Q20.18 4.12 20.10 4.02L20.10 4.02L22.21 4.02Q22.17 4.33 22.17 4.70L22.17 4.70L22.17 14.41L20.55 14.41L16.47 8.15L16.47 14.41ZM38.52 8.13L38.54 8.14Q38.39 8.41 38.39 9.41L38.39 9.41L38.39 11.84Q38.39 12.94 37.25 13.75L37.25 13.75Q36.07 14.60 34.36 14.60L34.36 14.60Q31.98 14.60 30.57 13.11L30.57 13.11Q29.20 11.69 29.20 9.48L29.20 9.48Q29.20 7.14 30.59 5.58L30.59 5.58Q32.15 3.82 34.88 3.82L34.88 3.82Q36.70 3.82 37.76 4.52L37.76 4.52L37.63 6.83L37.57 6.84Q37.30 6.37 36.49 6.06L36.49 6.06Q35.73 5.77 34.89 5.77Q34.05 5.77 33.42 6.04Q32.79 6.30 32.35 6.80L32.35 6.80Q31.43 7.80 31.43 9.46L31.43 9.46Q31.43 10.91 32.24 11.78L32.24 11.78Q33.05 12.65 34.34 12.65L34.34 12.65Q35.75 12.65 36.24 11.91L36.24 11.91Q36.40 11.68 36.40 11.38L36.40 11.38L36.40 10.09L35.39 10.09Q34.58 10.09 34.51 10.23L34.51 10.23L34.48 10.22L34.41 8.18Q34.63 8.24 36.19 8.24L36.19 8.24L37.11 8.24Q37.97 8.24 38.52 8.13L38.52 8.13ZM47.13 12.16L46.39 14.47Q45.72 14.41 44.82 14.41L44.82 14.41L44.20 14.41L47.60 4.88Q47.83 4.24 47.83 4.14Q47.83 4.03 47.82 4.01L47.82 4.01L47.83 3.99Q48.34 4.02 48.91 4.02L48.91 4.02Q49.38 4.02 50.03 4L50.03 4L50.04 4.02Q50.02 4.05 50.02 4.10L50.02 4.10Q50.02 4.25 50.26 4.89L50.26 4.89L53.73 14.43Q53.57 14.42 53.36 14.42L53.36 14.42Q53.36 14.42 52.95 14.41L52.95 14.41Q52.76 14.41 52.60 14.41L52.60 14.41L51.39 14.41L50.66 12.16L47.13 12.16ZM47.72 10.28L50.05 10.28L48.87 6.65L47.72 10.28ZM68.52 8.13L68.55 8.14Q68.40 8.41 68.40 9.41L68.40 9.41L68.40 11.84Q68.40 12.94 67.26 13.75L67.26 13.75Q66.08 14.60 64.37 14.60L64.37 14.60Q61.99 14.60 60.58 13.11L60.58 13.11Q59.21 11.69 59.21 9.48L59.21 9.48Q59.21 7.14 60.60 5.58L60.60 5.58Q62.16 3.82 64.88 3.82L64.88 3.82Q66.70 3.82 67.77 4.52L67.77 4.52L67.64 6.83L67.58 6.84Q67.30 6.37 66.50 6.06L66.50 6.06Q65.73 5.77 64.89 5.77Q64.05 5.77 63.43 6.04Q62.80 6.30 62.36 6.80L62.36 6.80Q61.44 7.80 61.44 9.46L61.44 9.46Q61.44 10.91 62.25 11.78L62.25 11.78Q63.06 12.65 64.34 12.65L64.34 12.65Q65.76 12.65 66.25 11.91L66.25 11.91Q66.41 11.68 66.41 11.38L66.41 11.38L66.41 10.09L65.40 10.09Q64.59 10.09 64.52 10.23L64.52 10.23L64.49 10.22L64.42 8.18Q64.64 8.24 66.20 8.24L66.20 8.24L67.12 8.24Q67.98 8.24 68.52 8.13L68.52 8.13ZM77.68 12.53L80.87 12.53Q81.35 12.53 81.54 12.44L81.54 12.44L81.57 12.45L81.49 14.41L75.64 14.41L75.64 3.96Q75.85 3.98 76.11 3.98L76.11 3.98L76.66 4Q77.20 4.02 77.84 4.02L77.84 4.02Q79.63 4.02 81.38 3.95L81.38 3.95Q81.30 4.64 81.30 5.79L81.30 5.79Q81.30 5.91 81.31 5.98L81.31 5.98L81.30 6Q80.89 5.88 80.14 5.88L80.14 5.88L77.68 5.88L77.68 7.88L79.53 7.88Q80.39 7.88 80.56 7.83L80.56 7.83L80.59 9.76Q80.21 9.72 79.62 9.72L79.62 9.72L77.68 9.72L77.68 12.53ZM90.77 7.82L90.77 14.45Q90.39 14.41 89.32 14.41L89.32 14.41L88.70 14.41L88.70 3.98Q89.20 4.02 89.80 4.02Q90.40 4.02 90.65 3.95L90.65 3.95L93.27 8.41L95.80 3.95Q96.05 4.02 96.75 4.02Q97.45 4.02 97.95 3.98L97.95 3.98L97.95 14.41L97.33 14.41Q96.26 14.41 95.88 14.45L95.88 14.45L95.88 7.45L93.33 12.02L90.77 7.82ZM107.72 12.53L110.91 12.53Q111.39 12.53 111.58 12.44L111.58 12.44L111.61 12.45L111.53 14.41L105.68 14.41L105.68 3.96Q105.89 3.98 106.15 3.98L106.15 3.98L106.70 4Q107.24 4.02 107.88 4.02L107.88 4.02Q109.67 4.02 111.42 3.95L111.42 3.95Q111.34 4.64 111.34 5.79L111.34 5.79Q111.34 5.91 111.35 5.98L111.35 5.98L111.34 6Q110.93 5.88 110.18 5.88L110.18 5.88L107.72 5.88L107.72 7.88L109.57 7.88Q110.43 7.88 110.60 7.83L110.60 7.83L110.63 9.76Q110.25 9.72 109.66 9.72L109.66 9.72L107.72 9.72L107.72 12.53ZM120.80 14.41L118.77 14.41Q118.81 14.14 118.81 13.83L118.81 13.83L118.81 4.02L120.38 4.02L124.52 10.53L124.52 4.55Q124.52 4.12 124.44 4.02L124.44 4.02L126.55 4.02Q126.51 4.33 126.51 4.70L126.51 4.70L126.51 14.41L124.88 14.41L120.80 8.15L120.80 14.41ZM138.06 5.77L138.06 14.45Q137.69 14.41 136.13 14.41L136.13 14.41L135.88 14.41L135.88 5.77L134.34 5.77Q133.65 5.77 133.52 5.84Q133.40 5.91 133.33 5.96L133.33 5.96L133.30 5.95L133.30 3.95L133.33 3.93Q133.59 4.02 134.72 4.02L134.72 4.02L139.62 4.02Q140.30 4.02 140.43 3.95Q140.55 3.88 140.63 3.82L140.63 3.82L140.65 3.83L140.65 5.83L140.63 5.85Q140.37 5.77 139.23 5.77L139.23 5.77L138.06 5.77ZM159.67 12.53L162.86 12.53Q163.34 12.53 163.53 12.44L163.53 12.44L163.56 12.45L163.48 14.41L157.63 14.41L157.63 3.96Q157.84 3.98 158.10 3.98L158.10 3.98L158.65 4Q159.20 4.02 159.84 4.02L159.84 4.02Q161.63 4.02 163.38 3.95L163.38 3.95Q163.29 4.64 163.29 5.79L163.29 5.79Q163.29 5.91 163.30 5.98L163.30 5.98L163.29 6Q162.88 5.88 162.13 5.88L162.13 5.88L159.67 5.88L159.67 7.88L161.52 7.88Q162.38 7.88 162.55 7.83L162.55 7.83L162.58 9.76Q162.20 9.72 161.61 9.72L161.61 9.72L159.67 9.72L159.67 12.53ZM174.40 5.77L174.40 14.45Q174.02 14.41 172.47 14.41L172.47 14.41L172.22 14.41L172.22 5.77L170.67 5.77Q169.98 5.77 169.86 5.84Q169.73 5.91 169.66 5.96L169.66 5.96L169.64 5.95L169.64 3.95L169.66 3.93Q169.92 4.02 171.05 4.02L171.05 4.02L175.95 4.02Q176.64 4.02 176.77 3.95Q176.89 3.88 176.96 3.82L176.96 3.82L176.98 3.83L176.98 5.83L176.96 5.85Q176.70 5.77 175.57 5.77L175.57 5.77L174.40 5.77ZM194.21 14.41L194.21 3.98Q194.99 4.02 195.16 4.02L195.16 4.02L195.72 4.02Q196.13 4.02 196.38 3.95L196.38 3.95L196.38 14.41L194.21 14.41ZM206.42 14.41L204.38 14.41Q204.43 14.14 204.43 13.83L204.43 13.83L204.43 4.02L205.99 4.02L210.13 10.53L210.13 4.55Q210.13 4.12 210.05 4.02L210.05 4.02L212.16 4.02Q212.13 4.33 212.13 4.70L212.13 4.70L212.13 14.41L210.50 14.41L206.42 8.15L206.42 14.41ZM222.04 14.41L220 14.41Q220.05 14.14 220.05 13.83L220.05 13.83L220.05 4.02L221.61 4.02L225.75 10.53L225.75 4.55Q225.75 4.12 225.67 4.02L225.67 4.02L227.78 4.02Q227.74 4.33 227.74 4.70L227.74 4.70L227.74 14.41L226.12 14.41L222.04 8.15L222.04 14.41ZM236.40 13.17Q235.69 12.49 235.28 11.54Q234.87 10.59 234.87 9.45Q234.87 8.31 235.25 7.30Q235.63 6.28 236.34 5.51Q237.05 4.73 238.06 4.28Q239.07 3.82 240.32 3.82L240.32 3.82Q242.48 3.82 243.95 5.18L243.95 5.18Q245.53 6.63 245.53 9.10L245.53 9.10Q245.53 11.49 243.91 13.08L243.91 13.08Q242.91 14.05 241.52 14.42L241.52 14.42Q240.84 14.60 239.93 14.60Q239.02 14.60 238.07 14.23Q237.11 13.85 236.40 13.17ZM237.04 9.34L237.04 9.34Q237.04 10.07 237.28 10.68Q237.52 11.29 237.95 11.73L237.95 11.73Q238.87 12.65 240.30 12.65L240.30 12.65Q241.67 12.65 242.50 11.77L242.50 11.77Q243.34 10.85 243.34 9.27L243.34 9.27Q243.34 7.79 242.54 6.80L242.54 6.80Q241.67 5.73 240.16 5.73L240.16 5.73Q238.70 5.73 237.84 6.81L237.84 6.81Q237.04 7.82 237.04 9.34ZM257 14.41L256.98 14.44Q256.73 14.41 256.16 14.41L256.16 14.41L255.30 14.41Q255.09 14.41 254.92 14.42L254.92 14.42L254.91 14.41Q254.95 14.35 254.95 14.28Q254.95 14.21 254.93 14.13Q254.92 14.05 254.87 13.85Q254.81 13.65 254.70 13.27L254.70 13.27L254.37 12.22L251.46 3.98Q251.95 4.02 252.70 4.02Q253.45 4.02 253.66 3.95L253.66 3.95L256.01 11.05L258.07 3.98Q258.54 4.02 259.23 4.02L259.23 4.02Q260.16 4.02 260.32 3.95L260.32 3.95L257.47 12.20Q257.47 12.20 257.20 13.11L257.20 13.11Q256.97 13.89 256.97 14.12Q256.97 14.35 257 14.41L257 14.41ZM268.35 12.16L267.62 14.47Q266.95 14.41 266.05 14.41L266.05 14.41L265.43 14.41L268.83 4.88Q269.05 4.24 269.05 4.14Q269.05 4.03 269.05 4.01L269.05 4.01L269.05 3.99Q269.56 4.02 270.13 4.02L270.13 4.02Q270.60 4.02 271.26 4L271.26 4L271.27 4.02Q271.25 4.05 271.25 4.10L271.25 4.10Q271.25 4.25 271.48 4.89L271.48 4.89L274.95 14.43Q274.80 14.42 274.59 14.42L274.59 14.42Q274.59 14.42 274.18 14.41L274.18 14.41Q273.98 14.41 273.83 14.41L273.83 14.41L272.62 14.41L271.88 12.16L268.35 12.16ZM268.95 10.28L271.27 10.28L270.09 6.65L268.95 10.28ZM284.96 5.77L284.96 14.45Q284.59 14.41 283.03 14.41L283.03 14.41L282.78 14.41L282.78 5.77L281.23 5.77Q280.55 5.77 280.42 5.84Q280.30 5.91 280.23 5.96L280.23 5.96L280.20 5.95L280.20 3.95L280.23 3.93Q280.48 4.02 281.62 4.02L281.62 4.02L286.52 4.02Q287.20 4.02 287.33 3.95Q287.45 3.88 287.52 3.82L287.52 3.82L287.55 3.83L287.55 5.83L287.52 5.85Q287.27 5.77 286.13 5.77L286.13 5.77L284.96 5.77ZM294.47 14.41L294.47 3.98Q295.25 4.02 295.41 4.02L295.41 4.02L295.98 4.02Q296.39 4.02 296.64 3.95L296.64 3.95L296.63 14.41L294.47 14.41ZM305.42 13.17Q304.71 12.49 304.30 11.54Q303.89 10.59 303.89 9.45Q303.89 8.31 304.27 7.30Q304.66 6.28 305.37 5.51Q306.08 4.73 307.09 4.28Q308.09 3.82 309.34 3.82L309.34 3.82Q311.50 3.82 312.98 5.18L312.98 5.18Q314.55 6.63 314.55 9.10L314.55 9.10Q314.55 11.49 312.93 13.08L312.93 13.08Q311.93 14.05 310.55 14.42L310.55 14.42Q309.87 14.60 308.96 14.60Q308.05 14.60 307.09 14.23Q306.13 13.85 305.42 13.17ZM306.06 9.34L306.06 9.34Q306.06 10.07 306.30 10.68Q306.55 11.29 306.98 11.73L306.98 11.73Q307.89 12.65 309.33 12.65L309.33 12.65Q310.70 12.65 311.52 11.77L311.52 11.77Q312.37 10.85 312.37 9.27L312.37 9.27Q312.37 7.79 311.56 6.80L311.56 6.80Q310.70 5.73 309.19 5.73L309.19 5.73Q307.73 5.73 306.87 6.81L306.87 6.81Q306.06 7.82 306.06 9.34ZM323.67 14.41L321.63 14.41Q321.68 14.14 321.68 13.83L321.68 13.83L321.68 4.02L323.24 4.02L327.38 10.53L327.38 4.55Q327.38 4.12 327.30 4.02L327.30 4.02L329.41 4.02Q329.38 4.33 329.38 4.70L329.38 4.70L329.38 14.41L327.75 14.41L323.67 8.15L323.67 14.41Z" transform="translate(0, 0)"></path></g></svg> <svg y="353.61" viewBox="5.130000114440918 14.487027168273926 407.8699951171875 45.69297409057617" x="83.565" height="45.69297409057617" width="407.8699951171875" style="overflow: visible;"><g fill="#24e6ed" fill-opacity="1" style=""><path d="M7.55 60.06L7.55 60.06Q6.37 60.06 5.75 59.38Q5.13 58.70 5.13 57.52L5.13 57.52L5.13 20.53Q5.13 19.29 5.78 18.67Q6.43 18.05 7.61 18.05L7.61 18.05L21.59 18.05Q28.26 18.05 31.86 21.33Q35.46 24.60 35.46 30.56L35.46 30.56Q35.46 36.46 31.86 39.77Q28.26 43.07 21.59 43.07L21.59 43.07L9.97 43.07L9.97 57.52Q9.97 58.70 9.38 59.38Q8.79 60.06 7.55 60.06ZM9.97 22.07L9.97 39.00L21.00 39.00Q25.78 39.00 28.23 36.85Q30.68 34.69 30.68 30.56L30.68 30.56Q30.68 26.37 28.23 24.22Q25.78 22.07 21.00 22.07L21.00 22.07L9.97 22.07ZM43.66 60.06L43.66 60.06Q42.48 60.06 41.86 59.41Q41.24 58.76 41.24 57.58L41.24 57.58L41.24 32.98Q41.24 31.80 41.83 31.18Q42.42 30.56 43.54 30.56L43.54 30.56Q44.66 30.56 45.28 31.18Q45.90 31.80 45.90 32.98L45.90 32.98L45.90 37.76L45.31 37.76Q46.26 34.28 48.91 32.39Q51.57 30.50 55.46 30.38L55.46 30.38Q56.34 30.33 56.88 30.77Q57.41 31.21 57.47 32.27L57.47 32.27Q57.52 33.28 56.99 33.87Q56.46 34.46 55.34 34.57L55.34 34.57L54.40 34.69Q50.39 35.05 48.23 37.26Q46.08 39.47 46.08 43.31L46.08 43.31L46.08 57.58Q46.08 58.76 45.46 59.41Q44.84 60.06 43.66 60.06ZM73.93 60.18L73.93 60.18Q69.74 60.18 66.67 58.35Q63.60 56.52 61.92 53.19Q60.24 49.86 60.24 45.31L60.24 45.31Q60.24 41.89 61.18 39.15Q62.13 36.40 63.96 34.46Q65.78 32.51 68.29 31.48Q70.80 30.44 73.93 30.44L73.93 30.44Q78.12 30.44 81.18 32.27Q84.25 34.10 85.93 37.44Q87.62 40.77 87.62 45.31L87.62 45.31Q87.62 48.73 86.67 51.45Q85.73 54.16 83.90 56.14Q82.07 58.12 79.56 59.15Q77.05 60.18 73.93 60.18ZM73.93 56.34L73.93 56.34Q76.58 56.34 78.59 55.05Q80.59 53.75 81.69 51.27Q82.78 48.79 82.78 45.31L82.78 45.31Q82.78 39.94 80.39 37.11Q78.00 34.28 73.93 34.28L73.93 34.28Q71.21 34.28 69.24 35.55Q67.26 36.82 66.17 39.26Q65.08 41.71 65.08 45.31L65.08 45.31Q65.08 50.62 67.50 53.48Q69.91 56.34 73.93 56.34ZM98.41 60.06L98.41 60.06Q97.29 60.06 96.67 59.41Q96.05 58.76 96.05 57.58L96.05 57.58L96.05 34.69L92.28 34.69Q91.33 34.69 90.77 34.19Q90.21 33.69 90.21 32.80L90.21 32.80Q90.21 31.92 90.77 31.45Q91.33 30.97 92.28 30.97L92.28 30.97L97.35 30.97L96.05 32.21L96.05 29.97Q96.05 24.37 98.80 21.42Q101.54 18.47 106.85 17.99L106.85 17.99L108.56 17.82Q109.39 17.76 109.89 18.11Q110.39 18.47 110.54 19.00Q110.68 19.53 110.57 20.09Q110.45 20.65 110.04 21.06Q109.62 21.48 109.03 21.53L109.03 21.53L107.68 21.65Q104.08 21.95 102.45 23.84Q100.83 25.72 100.83 29.38L100.83 29.38L100.83 31.86L100.12 30.97L107.20 30.97Q108.21 30.97 108.74 31.45Q109.27 31.92 109.27 32.80L109.27 32.80Q109.27 33.69 108.74 34.19Q108.21 34.69 107.20 34.69L107.20 34.69L100.83 34.69L100.83 57.58Q100.83 60.06 98.41 60.06ZM123.55 60.18L123.55 60.18Q120.89 60.18 118.21 59.53Q115.52 58.88 113.22 57.29L113.22 57.29Q112.63 56.88 112.40 56.32Q112.16 55.76 112.25 55.19Q112.34 54.63 112.72 54.22Q113.10 53.81 113.66 53.72Q114.22 53.63 114.93 53.98L114.93 53.98Q117.23 55.40 119.39 55.96Q121.54 56.52 123.66 56.52L123.66 56.52Q127.03 56.52 128.74 55.28Q130.45 54.04 130.45 51.92L130.45 51.92Q130.45 50.27 129.33 49.29Q128.21 48.32 125.79 47.79L125.79 47.79L120.42 46.61Q116.70 45.84 114.90 43.95Q113.10 42.07 113.10 39.06L113.10 39.06Q113.10 36.40 114.49 34.49Q115.88 32.57 118.41 31.51Q120.95 30.44 124.31 30.44L124.31 30.44Q126.91 30.44 129.24 31.12Q131.57 31.80 133.46 33.28L133.46 33.28Q134.05 33.69 134.25 34.25Q134.46 34.81 134.31 35.37Q134.17 35.93 133.75 36.31Q133.34 36.70 132.75 36.76Q132.16 36.82 131.51 36.40L131.51 36.40Q129.74 35.22 127.91 34.66Q126.08 34.10 124.31 34.10L124.31 34.10Q121.01 34.10 119.30 35.40Q117.59 36.70 117.59 38.82L117.59 38.82Q117.59 40.47 118.65 41.54Q119.71 42.60 121.95 43.07L121.95 43.07L127.32 44.19Q131.16 45.02 133.07 46.82Q134.99 48.62 134.99 51.68L134.99 51.68Q134.99 55.58 131.87 57.88Q128.74 60.18 123.55 60.18ZM157.24 60.06L157.24 60.06Q156.29 60.06 155.73 59.62Q155.17 59.18 155.08 58.44Q154.99 57.70 155.41 56.76L155.41 56.76L171.63 19.82Q172.16 18.64 172.90 18.14Q173.64 17.64 174.52 17.64L174.52 17.64Q175.41 17.64 176.14 18.14Q176.88 18.64 177.35 19.82L177.35 19.82L193.64 56.76Q194.11 57.70 194.02 58.47Q193.93 59.24 193.40 59.65Q192.87 60.06 191.93 60.06L191.93 60.06Q190.87 60.06 190.22 59.50Q189.57 58.94 189.15 57.88L189.15 57.88L184.79 47.79L187.15 49.03L161.78 49.03L164.20 47.79L159.89 57.88Q159.36 59 158.77 59.53Q158.18 60.06 157.24 60.06ZM174.58 23.72L174.46 23.72L164.96 46.08L163.55 44.96L185.38 44.96L184.08 46.08L174.58 23.72ZM212.34 60.18L212.34 60.18Q208.03 60.18 204.91 58.29Q201.78 56.40 200.10 53.01Q198.42 49.62 198.42 45.13L198.42 45.13Q198.42 41.71 199.36 39.00Q200.31 36.28 202.13 34.37Q203.96 32.45 206.53 31.45Q209.10 30.44 212.34 30.44L212.34 30.44Q214.47 30.44 216.77 31.09Q219.07 31.74 220.96 33.34L220.96 33.34Q221.55 33.75 221.72 34.34Q221.90 34.93 221.72 35.49Q221.55 36.05 221.13 36.43Q220.72 36.82 220.10 36.88Q219.48 36.93 218.83 36.46L218.83 36.46Q217.30 35.28 215.70 34.81Q214.11 34.34 212.64 34.34L212.64 34.34Q210.34 34.34 208.62 35.08Q206.91 35.81 205.73 37.17Q204.55 38.53 203.93 40.53Q203.31 42.54 203.31 45.19L203.31 45.19Q203.31 50.33 205.73 53.31Q208.15 56.29 212.64 56.29L212.64 56.29Q214.11 56.29 215.67 55.81Q217.24 55.34 218.83 54.16L218.83 54.16Q219.48 53.69 220.07 53.75Q220.66 53.81 221.07 54.19Q221.49 54.58 221.63 55.16Q221.78 55.76 221.60 56.32Q221.43 56.88 220.84 57.29L220.84 57.29Q218.95 58.82 216.71 59.50Q214.47 60.18 212.34 60.18ZM236.30 60.18L236.30 60.18Q233.35 60.18 231.01 59.03Q228.68 57.88 227.33 55.87Q225.97 53.87 225.97 51.39L225.97 51.39Q225.97 48.20 227.59 46.37Q229.22 44.55 232.96 43.78Q236.71 43.01 243.20 43.01L243.20 43.01L245.85 43.01L245.85 46.14L243.26 46.14Q238.48 46.14 235.73 46.58Q232.99 47.02 231.90 48.09Q230.81 49.15 230.81 51.09L230.81 51.09Q230.81 53.51 232.49 55.05Q234.17 56.58 237.06 56.58L237.06 56.58Q239.42 56.58 241.22 55.46Q243.02 54.34 244.05 52.39Q245.09 50.45 245.09 47.91L245.09 47.91L245.09 41.18Q245.09 37.52 243.61 35.90Q242.14 34.28 238.77 34.28L238.77 34.28Q236.71 34.28 234.64 34.81Q232.58 35.34 230.28 36.52L230.28 36.52Q229.45 36.93 228.86 36.79Q228.27 36.64 227.92 36.17Q227.56 35.70 227.50 35.08Q227.45 34.46 227.77 33.87Q228.09 33.28 228.80 32.92L228.80 32.92Q231.40 31.62 233.94 31.03Q236.47 30.44 238.77 30.44L238.77 30.44Q242.49 30.44 244.91 31.65Q247.33 32.86 248.51 35.31Q249.69 37.76 249.69 41.59L249.69 41.59L249.69 57.58Q249.69 58.76 249.13 59.41Q248.57 60.06 247.51 60.06L247.51 60.06Q246.38 60.06 245.79 59.41Q245.20 58.76 245.20 57.58L245.20 57.58L245.20 52.98L245.74 52.98Q245.26 55.22 243.94 56.82Q242.61 58.41 240.66 59.30Q238.71 60.18 236.30 60.18ZM269.45 60.18L269.45 60.18Q265.62 60.18 262.76 58.35Q259.90 56.52 258.33 53.19Q256.77 49.86 256.77 45.31L256.77 45.31Q256.77 40.71 258.33 37.38Q259.90 34.04 262.76 32.24Q265.62 30.44 269.45 30.44L269.45 30.44Q273.35 30.44 276.12 32.39Q278.89 34.34 279.84 37.64L279.84 37.64L279.19 37.64L279.19 20.06Q279.19 18.88 279.81 18.26Q280.43 17.64 281.61 17.64L281.61 17.64Q282.73 17.64 283.35 18.26Q283.97 18.88 283.97 20.06L283.97 20.06L283.97 57.58Q283.97 58.76 283.38 59.41Q282.79 60.06 281.61 60.06L281.61 60.06Q280.49 60.06 279.87 59.41Q279.25 58.76 279.25 57.58L279.25 57.58L279.25 51.98L279.90 52.80Q278.95 56.17 276.15 58.17Q273.35 60.18 269.45 60.18ZM270.46 56.34L270.46 56.34Q273.11 56.34 275.12 55.05Q277.12 53.75 278.21 51.27Q279.31 48.79 279.31 45.31L279.31 45.31Q279.31 39.94 276.92 37.11Q274.53 34.28 270.46 34.28L270.46 34.28Q267.74 34.28 265.77 35.55Q263.79 36.82 262.70 39.26Q261.61 41.71 261.61 45.31L261.61 45.31Q261.61 50.62 264.03 53.48Q266.44 56.34 270.46 56.34ZM305.86 60.18L305.86 60.18Q301.31 60.18 298.04 58.38Q294.76 56.58 292.96 53.28Q291.17 49.97 291.17 45.37L291.17 45.37Q291.17 40.89 292.94 37.55Q294.71 34.22 297.80 32.33Q300.90 30.44 304.97 30.44L304.97 30.44Q307.86 30.44 310.16 31.42Q312.46 32.39 314.09 34.22Q315.71 36.05 316.56 38.64Q317.42 41.24 317.42 44.49L317.42 44.49Q317.42 45.43 316.89 45.87Q316.36 46.31 315.36 46.31L315.36 46.31L294.82 46.31L294.82 43.19L314.23 43.19L313.29 43.95Q313.29 40.77 312.35 38.56Q311.40 36.34 309.60 35.16Q307.80 33.98 305.09 33.98L305.09 33.98Q302.08 33.98 299.99 35.37Q297.89 36.76 296.83 39.21Q295.77 41.65 295.77 44.90L295.77 44.90L295.77 45.25Q295.77 50.68 298.39 53.51Q301.02 56.34 305.86 56.34L305.86 56.34Q307.86 56.34 309.84 55.81Q311.82 55.28 313.70 54.04L313.70 54.04Q314.53 53.51 315.21 53.54Q315.89 53.57 316.30 53.96Q316.71 54.34 316.86 54.90Q317.01 55.46 316.74 56.11Q316.48 56.76 315.71 57.23L315.71 57.23Q313.76 58.65 311.11 59.41Q308.45 60.18 305.86 60.18ZM312.82 17.64L306.92 26.84Q306.51 27.44 305.92 27.52Q305.33 27.61 304.79 27.35Q304.26 27.08 304.03 26.55Q303.79 26.02 304.15 25.31L304.15 25.31L309.10 15.69Q309.51 14.87 310.16 14.63Q310.81 14.40 311.49 14.54Q312.17 14.69 312.64 15.16Q313.11 15.63 313.20 16.28Q313.29 16.93 312.82 17.64L312.82 17.64ZM326.80 60.06L326.80 60.06Q325.62 60.06 325.03 59.41Q324.44 58.76 324.44 57.58L324.44 57.58L324.44 32.98Q324.44 31.80 325.03 31.18Q325.62 30.56 326.74 30.56L326.74 30.56Q327.86 30.56 328.48 31.18Q329.10 31.80 329.10 32.98L329.10 32.98L329.10 38.17L328.45 37.35Q329.57 34.04 332.08 32.24Q334.59 30.44 338.07 30.44L338.07 30.44Q341.73 30.44 344.00 32.18Q346.27 33.92 347.04 37.58L347.04 37.58L346.15 37.58Q347.22 34.28 349.96 32.36Q352.70 30.44 356.36 30.44L356.36 30.44Q359.61 30.44 361.70 31.68Q363.79 32.92 364.86 35.43Q365.92 37.94 365.92 41.77L365.92 41.77L365.92 57.58Q365.92 58.76 365.30 59.41Q364.68 60.06 363.50 60.06L363.50 60.06Q362.38 60.06 361.76 59.41Q361.14 58.76 361.14 57.58L361.14 57.58L361.14 42.01Q361.14 38.05 359.78 36.20Q358.43 34.34 355.18 34.34L355.18 34.34Q351.64 34.34 349.60 36.79Q347.57 39.23 347.57 43.42L347.57 43.42L347.57 57.58Q347.57 58.76 346.95 59.41Q346.33 60.06 345.15 60.06L345.15 60.06Q344.03 60.06 343.41 59.41Q342.79 58.76 342.79 57.58L342.79 57.58L342.79 42.01Q342.79 38.05 341.40 36.20Q340.02 34.34 336.83 34.34L336.83 34.34Q333.29 34.34 331.26 36.79Q329.22 39.23 329.22 43.42L329.22 43.42L329.22 57.58Q329.22 60.06 326.80 60.06ZM377.19 59.94L377.19 59.94Q376.01 59.94 375.42 59.27Q374.83 58.59 374.83 57.35L374.83 57.35L374.83 33.22Q374.83 31.98 375.42 31.33Q376.01 30.68 377.19 30.68L377.19 30.68Q378.31 30.68 378.96 31.33Q379.61 31.98 379.61 33.22L379.61 33.22L379.61 57.35Q379.61 58.59 378.99 59.27Q378.37 59.94 377.19 59.94ZM377.19 24.07L377.19 24.07Q375.71 24.07 374.89 23.28Q374.06 22.48 374.06 21.12L374.06 21.12Q374.06 19.71 374.89 18.97Q375.71 18.23 377.19 18.23L377.19 18.23Q378.72 18.23 379.52 18.97Q380.31 19.71 380.31 21.12L380.31 21.12Q380.31 22.48 379.52 23.28Q378.72 24.07 377.19 24.07ZM401.44 60.18L401.44 60.18Q396.89 60.18 393.62 58.38Q390.34 56.58 388.54 53.28Q386.75 49.97 386.75 45.37L386.75 45.37Q386.75 40.89 388.52 37.55Q390.29 34.22 393.38 32.33Q396.48 30.44 400.55 30.44L400.55 30.44Q403.44 30.44 405.74 31.42Q408.04 32.39 409.67 34.22Q411.29 36.05 412.14 38.64Q413.00 41.24 413.00 44.49L413.00 44.49Q413.00 45.43 412.47 45.87Q411.94 46.31 410.94 46.31L410.94 46.31L390.40 46.31L390.40 43.19L409.81 43.19L408.87 43.95Q408.87 40.77 407.93 38.56Q406.98 36.34 405.18 35.16Q403.38 33.98 400.67 33.98L400.67 33.98Q397.66 33.98 395.57 35.37Q393.47 36.76 392.41 39.21Q391.35 41.65 391.35 44.90L391.35 44.90L391.35 45.25Q391.35 50.68 393.97 53.51Q396.60 56.34 401.44 56.34L401.44 56.34Q403.44 56.34 405.42 55.81Q407.40 55.28 409.28 54.04L409.28 54.04Q410.11 53.51 410.79 53.54Q411.47 53.57 411.88 53.96Q412.29 54.34 412.44 54.90Q412.59 55.46 412.32 56.11Q412.06 56.76 411.29 57.23L411.29 57.23Q409.34 58.65 406.69 59.41Q404.03 60.18 401.44 60.18Z" transform="translate(0, 0)"></path></g></svg></svg>